<svg width="615" height="634" viewBox="0 0 615 634" fill="none" xmlns="http://www.w3.org/2000/svg">
<g clip-path="url(#clip0_33212_218)">
<path opacity="0.65" d="M49.6853 124.749C59.1507 85.2847 89.9108 55.0542 129.521 46.2127C181.115 34.6959 255.206 21.074 316.992 21.074C376.79 21.074 449.416 33.8331 501.869 45.0951C545.113 54.3799 577.662 88.8869 583.651 132.701C588.513 168.265 593.558 215.463 596.019 270.363C599.078 338.627 591.405 435.319 583.88 508.501C577.774 567.895 527.243 611.945 467.518 611.945H145.954C97.7144 611.945 54.3109 582.81 42.4804 536.114C32.1513 495.344 21.7017 440.59 18.4965 377.79C14.1323 292.282 34.1711 189.433 49.6853 124.749Z" fill="white" fill-opacity="0.55" stroke="url(#paint0_linear_33212_218)"/>
<path d="M39.633 144.39C46.5783 104.684 75.1218 72.5645 113.714 60.9439C164.467 45.6614 237.476 26.6429 299.016 22.1064C358.575 17.7159 431.749 25.0945 484.764 32.4725C528.058 38.4976 562.317 70.2349 570.913 113.106C577.95 148.204 585.888 194.884 591.723 249.431C598.976 317.227 597.288 414.185 594.295 487.752C591.887 546.945 544.635 594.218 485.569 598.572L164.629 622.23C116.917 625.748 72.3097 600.084 57.7855 554.859C44.981 514.989 31.1953 461.192 24.1333 398.849C14.5236 314.014 28.1469 210.055 39.633 144.39Z" stroke="url(#paint1_linear_33212_218)" stroke-width="3"/>
</g>
<defs>
<linearGradient id="paint0_linear_33212_218" x1="19.522" y1="295.219" x2="604.775" y2="331.513" gradientUnits="userSpaceOnUse">
<stop stop-color="#4A86FF"/>
<stop offset="0.5" stop-color="#F5F5F5"/>
<stop offset="1" stop-color="#EF3959"/>
</linearGradient>
<linearGradient id="paint1_linear_33212_218" x1="19.0713" y1="316.513" x2="605.222" y2="316.63" gradientUnits="userSpaceOnUse">
<stop stop-color="#4A86FF"/>
<stop offset="0.5" stop-color="#F5F5F5"/>
<stop offset="1" stop-color="#EF3959"/>
</linearGradient>
<clipPath id="clip0_33212_218">
<rect width="614.995" height="634" fill="white" transform="translate(0.00488281)"/>
</clipPath>
</defs>
</svg>
